<svg xmlns="http://www.w3.org/2000/svg" viewBox="0 0 308.41 58.27"><defs><style>.cls-1{fill:#fff;}</style></defs><title>_3アセット 1</title><g id="レイヤー_2" data-name="レイヤー 2"><g id="レイヤー_1-2" data-name="レイヤー 1"><path class="cls-1" d="M75.1,26.23H86.56V34.3H75.1V57.62H66.23V1.13H89.71V9.2H75.1Z"/><path class="cls-1" d="M122.72,57.62h-9l-1.53-10.25h-10.9L99.8,57.62H91.65l9-56.49h13ZM102.46,39.71H111l-4.2-28.57h-.16Z"/><path class="cls-1" d="M134.9,16.71h-.16V57.62h-8V1.13h11.14l9,33.81H147V1.13h7.91V57.62H145.8Z"/><path class="cls-1" d="M187,36.56v7.5c0,9-4.52,14.21-13.24,14.21s-13.24-5.17-13.24-14.21V14.69c0-9,4.52-14.21,13.24-14.21S187,5.65,187,14.69v5.49h-8.4V14.12c0-4-1.77-5.57-4.6-5.57s-4.6,1.54-4.6,5.57V44.63c0,4,1.78,5.49,4.6,5.49s4.6-1.45,4.6-5.49V36.56Z"/><path class="cls-1" d="M192.44,1.13h8.88V49.55h14.6v8.07H192.44Z"/><path class="cls-1" d="M219.07,14.69c0-9,4.76-14.21,13.48-14.21S246,5.65,246,14.69V44.06c0,9-4.77,14.21-13.48,14.21s-13.48-5.17-13.48-14.21ZM228,44.63c0,4,1.77,5.57,4.6,5.57s4.6-1.53,4.6-5.57V14.12c0-4-1.78-5.57-4.6-5.57s-4.6,1.54-4.6,5.57Z"/><path class="cls-1" d="M265.07,47.21h.16l6.7-46.08h8.15l-8.72,56.49H258.13L249.41,1.13h9Z"/><path class="cls-1" d="M293.07,24.94h12.19V33H293.07V49.55h15.34v8.07H284.2V1.13h24.21V9.2H293.07Z"/><path class="cls-1" d="M25,2.86C12-3.66,0,3,0,3V56H2V32.11a28.17,28.17,0,0,1,23,.75c14,7,23,.16,23,.16V3S39,9.86,25,2.86Z"/><rect class="cls-1" y="25.01" width="4.67" height="31"/></g></g></svg>